<svg width="55" height="55" viewBox="0 0 55 55" fill="none" xmlns="http://www.w3.org/2000/svg">
<g filter="url(#filter0_dii_565_3329)">
<rect x="2" y="1" width="51" height="51" rx="10" fill="url(#paint0_linear_565_3329)"/>
<rect x="3" y="2" width="49" height="49" rx="9" stroke="url(#paint1_linear_565_3329)" stroke-width="2"/>
<path d="M42.5003 43L36.9641 37.4637V42.047H34.8699V33.8695H43.0474V35.9637H38.4224L43.9587 41.5L42.5003 43ZM28.0003 42.8333C25.81 42.8333 23.7517 42.4175 21.8253 41.5858C19.8989 40.7541 18.2232 39.6254 16.7982 38.1995C15.3732 36.774 14.2452 35.1034 13.4141 33.1879C12.5827 31.2723 12.167 29.2255 12.167 27.0475C12.167 24.8413 12.5825 22.7744 13.4137 20.8466C14.2448 18.9188 15.3727 17.2393 16.7974 15.8079C18.2221 14.3768 19.8975 13.2454 21.8237 12.4137C23.7498 11.5823 25.8077 11.1666 27.9974 11.1666C30.1874 11.1666 32.2459 11.5823 34.1728 12.4137C36.0998 13.2448 37.7759 14.3758 39.2012 15.8066C40.6264 17.2377 41.7549 18.9169 42.5866 20.8441C43.418 22.7713 43.8337 24.8383 43.8337 27.045C43.8337 27.5811 43.8107 28.1105 43.7649 28.6333C43.7191 29.1563 43.6412 29.6838 43.5312 30.2158H41.3424C41.4782 29.69 41.5784 29.1641 41.6428 28.6383C41.7073 28.1122 41.7395 27.5811 41.7395 27.045C41.7395 26.4055 41.6953 25.7625 41.607 25.1158C41.5187 24.4694 41.3831 23.8282 41.2003 23.192H34.5174C34.6107 23.8318 34.6838 24.4712 34.7366 25.1104C34.7891 25.7498 34.8153 26.3891 34.8153 27.0283C34.8153 27.5641 34.8009 28.0969 34.772 28.6266C34.7428 29.1563 34.6992 29.6861 34.6412 30.2158H32.5195C32.587 29.6838 32.6375 29.1543 32.6712 28.627C32.7048 28.1001 32.7216 27.5732 32.7216 27.0462C32.7216 26.402 32.6981 25.758 32.6512 25.1141C32.6039 24.47 32.5291 23.8293 32.4266 23.192H23.6062C23.5006 23.8318 23.4225 24.4718 23.372 25.112C23.3214 25.752 23.2962 26.3922 23.2962 27.0325C23.2962 27.6725 23.3214 28.3075 23.372 28.9375C23.4225 29.5675 23.4967 30.1966 23.5945 30.825H31.0024V32.9187H24.027C24.4262 34.3651 24.9238 35.7686 25.5199 37.1291C26.1157 38.4897 26.9425 39.6962 28.0003 40.7487C28.5462 40.7487 29.0827 40.7194 29.6099 40.6608C30.1371 40.6019 30.6725 40.5241 31.2162 40.4275V42.5116C30.6725 42.6086 30.1371 42.6863 29.6099 42.745C29.0827 42.8039 28.5462 42.8333 28.0003 42.8333ZM14.7966 30.825H21.4832C21.3877 30.1966 21.317 29.567 21.2712 28.9362C21.2253 28.3054 21.2024 27.6744 21.2024 27.0433C21.2024 26.3986 21.223 25.755 21.2641 25.1125C21.3055 24.4697 21.3728 23.8295 21.4662 23.192H14.7991C14.6166 23.8282 14.4813 24.4693 14.3932 25.1154C14.3052 25.7618 14.2612 26.4082 14.2612 27.0545C14.2612 27.6912 14.3044 28.3233 14.3907 28.9508C14.4774 29.578 14.6127 30.2027 14.7966 30.825ZM15.5578 21.0983H21.847C22.1714 19.7422 22.5982 18.4295 23.1274 17.1604C23.6566 15.8909 24.3346 14.6922 25.1616 13.5641C23.0741 14.0541 21.1914 14.9508 19.5137 16.2541C17.8359 17.5577 16.5173 19.1725 15.5578 21.0983ZM25.1341 40.4187C24.3577 39.2843 23.7005 38.087 23.1624 36.827C22.6241 35.567 22.1975 34.2643 21.8828 32.9187H15.5578C16.4875 34.8526 17.791 36.4798 19.4682 37.8004C21.1457 39.1207 23.0344 39.9934 25.1341 40.4187ZM24.027 21.0983H31.9907C31.6246 19.6397 31.1149 18.2418 30.4616 16.9045C29.808 15.5673 28.9875 14.3382 28.0003 13.217C27.0059 14.3337 26.1838 15.5618 25.5341 16.9012C24.8841 18.2407 24.3817 19.6397 24.027 21.0983ZM34.1662 21.0983H40.4428C39.4834 19.1725 38.167 17.5519 36.4937 16.2366C34.8206 14.9216 32.9449 14.0365 30.8666 13.5812C31.6544 14.7157 32.3095 15.9176 32.832 17.187C33.3545 18.4565 33.7992 19.7602 34.1662 21.0983Z" fill="white"/>
</g>
<defs>
<filter id="filter0_dii_565_3329" x="0" y="0" width="55" height="55" filterUnits="userSpaceOnUse" color-interpolation-filters="sRGB">
<feFlood flood-opacity="0" result="BackgroundImageFix"/>
<feColorMatrix in="SourceAlpha" type="matrix" values="0 0 0 0 0 0 0 0 0 0 0 0 0 0 0 0 0 0 127 0" result="hardAlpha"/>
<feOffset dy="1"/>
<feGaussianBlur stdDeviation="1"/>
<feComposite in2="hardAlpha" operator="out"/>
<feColorMatrix type="matrix" values="0 0 0 0 0.0627451 0 0 0 0 0.0941176 0 0 0 0 0.156863 0 0 0 0.05 0"/>
<feBlend mode="normal" in2="BackgroundImageFix" result="effect1_dropShadow_565_3329"/>
<feBlend mode="normal" in="SourceGraphic" in2="effect1_dropShadow_565_3329" result="shape"/>
<feColorMatrix in="SourceAlpha" type="matrix" values="0 0 0 0 0 0 0 0 0 0 0 0 0 0 0 0 0 0 127 0" result="hardAlpha"/>
<feOffset dy="-2"/>
<feComposite in2="hardAlpha" operator="arithmetic" k2="-1" k3="1"/>
<feColorMatrix type="matrix" values="0 0 0 0 0.0627451 0 0 0 0 0.0941176 0 0 0 0 0.156863 0 0 0 0.05 0"/>
<feBlend mode="normal" in2="shape" result="effect2_innerShadow_565_3329"/>
<feColorMatrix in="SourceAlpha" type="matrix" values="0 0 0 0 0 0 0 0 0 0 0 0 0 0 0 0 0 0 127 0" result="hardAlpha"/>
<feMorphology radius="1" operator="erode" in="SourceAlpha" result="effect3_innerShadow_565_3329"/>
<feOffset/>
<feComposite in2="hardAlpha" operator="arithmetic" k2="-1" k3="1"/>
<feColorMatrix type="matrix" values="0 0 0 0 0.0627451 0 0 0 0 0.0941176 0 0 0 0 0.156863 0 0 0 0.18 0"/>
<feBlend mode="normal" in2="effect2_innerShadow_565_3329" result="effect3_innerShadow_565_3329"/>
</filter>
<linearGradient id="paint0_linear_565_3329" x1="2" y1="26.5" x2="53" y2="26.5" gradientUnits="userSpaceOnUse">
<stop stop-color="#FF5300"/>
<stop offset="0.16" stop-color="#FB5103"/>
<stop offset="0.31" stop-color="#F04C0F"/>
<stop offset="0.46" stop-color="#DE4322"/>
<stop offset="0.61" stop-color="#C5363C"/>
<stop offset="0.75" stop-color="#A4265F"/>
<stop offset="0.9" stop-color="#7C1389"/>
<stop offset="1" stop-color="#5B03AD"/>
</linearGradient>
<linearGradient id="paint1_linear_565_3329" x1="27.5" y1="1" x2="27.5" y2="52" gradientUnits="userSpaceOnUse">
<stop stop-color="white" stop-opacity="0.12"/>
<stop offset="1" stop-color="white" stop-opacity="0"/>
</linearGradient>
</defs>
</svg>
